<svg width="242" height="39" viewBox="0 0 242 39" fill="none" xmlns="http://www.w3.org/2000/svg">
<path d="M21.3423 9.48C20.7023 8.30667 19.8223 7.41333 18.7023 6.8C17.5823 6.18667 16.2757 5.88 14.7823 5.88C13.129 5.88 11.6623 6.25333 10.3823 7C9.10234 7.74667 8.10234 8.81333 7.38234 10.2C6.66234 11.5867 6.30234 13.1867 6.30234 15C6.30234 16.8667 6.66234 18.4933 7.38234 19.88C8.12901 21.2667 9.15568 22.3333 10.4623 23.08C11.769 23.8267 13.289 24.2 15.0223 24.2C17.1557 24.2 18.9023 23.64 20.2623 22.52C21.6223 21.3733 22.5157 19.7867 22.9423 17.76H13.3423V13.48H28.4623V18.36C28.089 20.3067 27.289 22.1067 26.0623 23.76C24.8357 25.4133 23.249 26.7467 21.3023 27.76C19.3823 28.7467 17.2223 29.24 14.8223 29.24C12.129 29.24 9.68901 28.64 7.50234 27.44C5.34234 26.2133 3.63568 24.52 2.38234 22.36C1.15567 20.2 0.542342 17.7467 0.542342 15C0.542342 12.2533 1.15567 9.8 2.38234 7.64C3.63568 5.45333 5.34234 3.76 7.50234 2.56C9.68901 1.33333 12.1157 0.719999 14.7823 0.719999C17.929 0.719999 20.6623 1.49333 22.9823 3.04C25.3023 4.56 26.9023 6.70667 27.7823 9.48H21.3423ZM53.0695 18.596C53.0695 19.316 53.0215 19.964 52.9255 20.54H38.3455C38.4655 21.98 38.9695 23.108 39.8575 23.924C40.7455 24.74 41.8375 25.148 43.1335 25.148C45.0055 25.148 46.3375 24.344 47.1295 22.736H52.5655C51.9895 24.656 50.8855 26.24 49.2535 27.488C47.6215 28.712 45.6175 29.324 43.2415 29.324C41.3215 29.324 39.5935 28.904 38.0575 28.064C36.5455 27.2 35.3575 25.988 34.4935 24.428C33.6535 22.868 33.2335 21.068 33.2335 19.028C33.2335 16.964 33.6535 15.152 34.4935 13.592C35.3335 12.032 36.5095 10.832 38.0215 9.992C39.5335 9.152 41.2735 8.732 43.2415 8.732C45.1375 8.732 46.8295 9.14 48.3175 9.956C49.8295 10.772 50.9935 11.936 51.8095 13.448C52.6495 14.936 53.0695 16.652 53.0695 18.596ZM47.8495 17.156C47.8255 15.86 47.3575 14.828 46.4455 14.06C45.5335 13.268 44.4175 12.872 43.0975 12.872C41.8495 12.872 40.7935 13.256 39.9295 14.024C39.0895 14.768 38.5735 15.812 38.3815 17.156H47.8495ZM63.7682 12.152C64.4162 11.096 65.2562 10.268 66.2882 9.668C67.3442 9.068 68.5442 8.768 69.8882 8.768V14.06H68.5562C66.9722 14.06 65.7722 14.432 64.9562 15.176C64.1642 15.92 63.7682 17.216 63.7682 19.064V29H58.7282V9.056H63.7682V12.152ZM73.9669 18.956C73.9669 16.94 74.3629 15.152 75.1549 13.592C75.9709 12.032 77.0629 10.832 78.4309 9.992C79.8229 9.152 81.3709 8.732 83.0749 8.732C84.5629 8.732 85.8589 9.032 86.9629 9.632C88.0909 10.232 88.9909 10.988 89.6629 11.9V9.056H94.7389V29H89.6629V26.084C89.0149 27.02 88.1149 27.8 86.9629 28.424C85.8349 29.024 84.5269 29.324 83.0389 29.324C81.3589 29.324 79.8229 28.892 78.4309 28.028C77.0629 27.164 75.9709 25.952 75.1549 24.392C74.3629 22.808 73.9669 20.996 73.9669 18.956ZM89.6629 19.028C89.6629 17.804 89.4229 16.76 88.9429 15.896C88.4629 15.008 87.8149 14.336 86.9989 13.88C86.1829 13.4 85.3069 13.16 84.3709 13.16C83.4349 13.16 82.5709 13.388 81.7789 13.844C80.9869 14.3 80.3389 14.972 79.8349 15.86C79.3549 16.724 79.1149 17.756 79.1149 18.956C79.1149 20.156 79.3549 21.212 79.8349 22.124C80.3389 23.012 80.9869 23.696 81.7789 24.176C82.5949 24.656 83.4589 24.896 84.3709 24.896C85.3069 24.896 86.1829 24.668 86.9989 24.212C87.8149 23.732 88.4629 23.06 88.9429 22.196C89.4229 21.308 89.6629 20.252 89.6629 19.028ZM104.197 6.68C103.309 6.68 102.565 6.404 101.965 5.852C101.389 5.276 101.101 4.568 101.101 3.728C101.101 2.888 101.389 2.192 101.965 1.64C102.565 1.064 103.309 0.775999 104.197 0.775999C105.085 0.775999 105.817 1.064 106.393 1.64C106.993 2.192 107.293 2.888 107.293 3.728C107.293 4.568 106.993 5.276 106.393 5.852C105.817 6.404 105.085 6.68 104.197 6.68ZM106.681 9.056V29H101.641V9.056H106.681ZM121.741 3.908C124.477 3.908 126.841 4.424 128.833 5.456C130.849 6.464 132.385 7.916 133.441 9.812C134.521 11.708 135.061 13.94 135.061 16.508C135.061 19.076 134.521 21.308 133.441 23.204C132.385 25.076 130.849 26.516 128.833 27.524C126.841 28.508 124.477 29 121.741 29H113.929V3.908H121.741ZM121.741 26.3C124.981 26.3 127.453 25.448 129.157 23.744C130.861 22.016 131.713 19.604 131.713 16.508C131.713 13.388 130.849 10.952 129.121 9.2C127.417 7.448 124.957 6.572 121.741 6.572H117.205V26.3H121.741ZM159.362 18.38C159.362 19.004 159.326 19.664 159.254 20.36H143.486C143.606 22.304 144.266 23.828 145.466 24.932C146.69 26.012 148.166 26.552 149.894 26.552C151.31 26.552 152.486 26.228 153.422 25.58C154.382 24.908 155.054 24.02 155.438 22.916H158.966C158.438 24.812 157.382 26.36 155.798 27.56C154.214 28.736 152.246 29.324 149.894 29.324C148.022 29.324 146.342 28.904 144.854 28.064C143.39 27.224 142.238 26.036 141.398 24.5C140.558 22.94 140.138 21.14 140.138 19.1C140.138 17.06 140.546 15.272 141.362 13.736C142.178 12.2 143.318 11.024 144.782 10.208C146.27 9.368 147.974 8.948 149.894 8.948C151.766 8.948 153.422 9.356 154.862 10.172C156.302 10.988 157.406 12.116 158.174 13.556C158.966 14.972 159.362 16.58 159.362 18.38ZM155.978 17.696C155.978 16.448 155.702 15.38 155.15 14.492C154.598 13.58 153.842 12.896 152.882 12.44C151.946 11.96 150.902 11.72 149.75 11.72C148.094 11.72 146.678 12.248 145.502 13.304C144.35 14.36 143.69 15.824 143.522 17.696H155.978ZM172.65 29.324C171.138 29.324 169.782 29.072 168.582 28.568C167.382 28.04 166.434 27.32 165.738 26.408C165.042 25.472 164.658 24.404 164.586 23.204H167.97C168.066 24.188 168.522 24.992 169.338 25.616C170.178 26.24 171.27 26.552 172.614 26.552C173.862 26.552 174.846 26.276 175.566 25.724C176.286 25.172 176.646 24.476 176.646 23.636C176.646 22.772 176.262 22.136 175.494 21.728C174.726 21.296 173.538 20.876 171.93 20.468C170.466 20.084 169.266 19.7 168.33 19.316C167.418 18.908 166.626 18.32 165.954 17.552C165.306 16.76 164.982 15.728 164.982 14.456C164.982 13.448 165.282 12.524 165.882 11.684C166.482 10.844 167.334 10.184 168.438 9.704C169.542 9.2 170.802 8.948 172.218 8.948C174.402 8.948 176.166 9.5 177.51 10.604C178.854 11.708 179.574 13.22 179.67 15.14H176.394C176.322 14.108 175.902 13.28 175.134 12.656C174.39 12.032 173.382 11.72 172.11 11.72C170.934 11.72 169.998 11.972 169.302 12.476C168.606 12.98 168.258 13.64 168.258 14.456C168.258 15.104 168.462 15.644 168.87 16.076C169.302 16.484 169.83 16.82 170.454 17.084C171.102 17.324 171.99 17.6 173.118 17.912C174.534 18.296 175.686 18.68 176.574 19.064C177.462 19.424 178.218 19.976 178.842 20.72C179.49 21.464 179.826 22.436 179.85 23.636C179.85 24.716 179.55 25.688 178.95 26.552C178.35 27.416 177.498 28.1 176.394 28.604C175.314 29.084 174.066 29.324 172.65 29.324ZM188.147 6.068C187.523 6.068 186.995 5.852 186.563 5.42C186.131 4.988 185.915 4.46 185.915 3.836C185.915 3.212 186.131 2.684 186.563 2.252C186.995 1.82 187.523 1.604 188.147 1.604C188.747 1.604 189.251 1.82 189.659 2.252C190.091 2.684 190.307 3.212 190.307 3.836C190.307 4.46 190.091 4.988 189.659 5.42C189.251 5.852 188.747 6.068 188.147 6.068ZM189.731 9.272V29H186.455V9.272H189.731ZM205.43 8.948C207.134 8.948 208.622 9.32 209.894 10.064C211.19 10.808 212.15 11.744 212.774 12.872V9.272H216.086V29.432C216.086 31.232 215.702 32.828 214.934 34.22C214.166 35.636 213.062 36.74 211.622 37.532C210.206 38.324 208.55 38.72 206.654 38.72C204.062 38.72 201.902 38.108 200.174 36.884C198.446 35.66 197.426 33.992 197.114 31.88H200.354C200.714 33.08 201.458 34.04 202.586 34.76C203.714 35.504 205.07 35.876 206.654 35.876C208.454 35.876 209.918 35.312 211.046 34.184C212.198 33.056 212.774 31.472 212.774 29.432V25.292C212.126 26.444 211.166 27.404 209.894 28.172C208.622 28.94 207.134 29.324 205.43 29.324C203.678 29.324 202.082 28.892 200.642 28.028C199.226 27.164 198.11 25.952 197.294 24.392C196.478 22.832 196.07 21.056 196.07 19.064C196.07 17.048 196.478 15.284 197.294 13.772C198.11 12.236 199.226 11.048 200.642 10.208C202.082 9.368 203.678 8.948 205.43 8.948ZM212.774 19.1C212.774 17.612 212.474 16.316 211.874 15.212C211.274 14.108 210.458 13.268 209.426 12.692C208.418 12.092 207.302 11.792 206.078 11.792C204.854 11.792 203.738 12.08 202.73 12.656C201.722 13.232 200.918 14.072 200.318 15.176C199.718 16.28 199.418 17.576 199.418 19.064C199.418 20.576 199.718 21.896 200.318 23.024C200.918 24.128 201.722 24.98 202.73 25.58C203.738 26.156 204.854 26.444 206.078 26.444C207.302 26.444 208.418 26.156 209.426 25.58C210.458 24.98 211.274 24.128 211.874 23.024C212.474 21.896 212.774 20.588 212.774 19.1ZM233.214 8.912C235.614 8.912 237.558 9.644 239.046 11.108C240.534 12.548 241.278 14.636 241.278 17.372V29H238.038V17.84C238.038 15.872 237.546 14.372 236.562 13.34C235.578 12.284 234.234 11.756 232.53 11.756C230.802 11.756 229.422 12.296 228.39 13.376C227.382 14.456 226.878 16.028 226.878 18.092V29H223.602V9.272H226.878V12.08C227.526 11.072 228.402 10.292 229.506 9.74C230.634 9.188 231.87 8.912 233.214 8.912Z" fill="white"/>
</svg>
