<svg width="150" height="150" viewBox="0 0 150 150" fill="none" xmlns="http://www.w3.org/2000/svg">
<circle cx="75" cy="75" r="75" fill="url(#paint0_linear_1_6)"/>
<path d="M89.95 62.08C88.51 59.44 86.53 57.43 84.01 56.05C81.49 54.67 78.55 53.98 75.19 53.98C71.47 53.98 68.17 54.82 65.29 56.5C62.41 58.18 60.16 60.58 58.54 63.7C56.92 66.82 56.11 70.42 56.11 74.5C56.11 78.7 56.92 82.36 58.54 85.48C60.22 88.6 62.53 91 65.47 92.68C68.41 94.36 71.83 95.2 75.73 95.2C80.53 95.2 84.46 93.94 87.52 91.42C90.58 88.84 92.59 85.27 93.55 80.71H71.95V71.08H105.97V82.06C105.13 86.44 103.33 90.49 100.57 94.21C97.81 97.93 94.24 100.93 89.86 103.21C85.54 105.43 80.68 106.54 75.28 106.54C69.22 106.54 63.73 105.19 58.81 102.49C53.95 99.73 50.11 95.92 47.29 91.06C44.53 86.2 43.15 80.68 43.15 74.5C43.15 68.32 44.53 62.8 47.29 57.94C50.11 53.02 53.95 49.21 58.81 46.51C63.73 43.75 69.19 42.37 75.19 42.37C82.27 42.37 88.42 44.11 93.64 47.59C98.86 51.01 102.46 55.84 104.44 62.08H89.95Z" fill="white"/>
<defs>
<linearGradient id="paint0_linear_1_6" x1="75" y1="0" x2="75" y2="150" gradientUnits="userSpaceOnUse">
<stop stop-color="#0099FF"/>
<stop offset="1" stop-color="#00C2FF" stop-opacity="0.6"/>
</linearGradient>
</defs>
</svg>
